# xmcd
#
# Track frame offsets:
#	150
#	63021
#	86326
#	140165
#
# Disc length: 2307 seconds
#
# Revision: 1
# Processed by: cddbd v1.5.2PL0 Copyright (c) Steve Scherf et al.
# Submitted via: audiograbber 1.83.01
#
DISCID=2d090104
DTITLE=Grateful Dead - 95-06-30 Three Rivers Stadium, Pittsburgh PA
DYEAR=1900
DGENRE=
TTITLE0=Space
TTITLE1=I Need A Miracle
TTITLE2=Standing On The Moon
TTITLE3=Gloria
EXTD=
EXTT0=
EXTT1=
EXTT2=
EXTT3=
PLAYORDER=
